<svg xmlns="http://www.w3.org/2000/svg" width="74" height="74" viewBox="0 0 74 74"><defs><style>.a{fill:#f1f1f1;}.b{fill:#6035fc;}</style></defs><g transform="translate(-157 -358)"><circle class="a" cx="37" cy="37" r="37" transform="translate(157 358)"/><g transform="translate(112.428 380)"><g transform="translate(70.573)"><path class="b" d="M81.495,0A10.934,10.934,0,0,0,70.573,10.921c0,7.474,9.774,18.445,10.19,18.909a.984.984,0,0,0,1.463,0c.416-.463,10.19-11.435,10.19-18.909A10.934,10.934,0,0,0,81.495,0Zm0,16.416a5.495,5.495,0,1,1,5.495-5.495A5.5,5.5,0,0,1,81.495,16.416Z" transform="translate(-70.573)"/></g></g></g></svg>