<svg xmlns="http://www.w3.org/2000/svg" width="17.16" height="17.549" viewBox="0 0 17.16 17.549"><defs><style>.a{fill:#797979;}</style></defs><path class="a" d="M119.221,258.64a.4.4,0,0,0-.4-.4h-1.39a.4.4,0,0,0-.4.4v1.39a.4.4,0,0,0,.4.4h1.39a.4.4,0,0,0,.4-.4v-1.39Z" transform="translate(-113.022 -248.958)"/><path class="a" d="M215.856,258.64a.4.4,0,0,0-.4-.4h-1.39a.4.4,0,0,0-.4.4v1.39a.4.4,0,0,0,.4.4h1.39a.4.4,0,0,0,.4-.4Z" transform="translate(-206.183 -248.958)"/><path class="a" d="M312.484,258.64a.4.4,0,0,0-.4-.4H310.7a.4.4,0,0,0-.4.4v1.39a.4.4,0,0,0,.4.4h1.39a.4.4,0,0,0,.4-.4Z" transform="translate(-299.337 -248.958)"/><path class="a" d="M119.221,355.273a.4.4,0,0,0-.4-.4h-1.39a.4.4,0,0,0-.4.4v1.39a.4.4,0,0,0,.4.4h1.39a.4.4,0,0,0,.4-.4v-1.39Z" transform="translate(-113.022 -342.117)"/><path class="a" d="M215.856,355.273a.4.4,0,0,0-.4-.4h-1.39a.4.4,0,0,0-.4.4v1.39a.4.4,0,0,0,.4.4h1.39a.4.4,0,0,0,.4-.4Z" transform="translate(-206.183 -342.117)"/><path class="a" d="M312.484,355.273a.4.4,0,0,0-.4-.4H310.7a.4.4,0,0,0-.4.4v1.39a.4.4,0,0,0,.4.4h1.39a.4.4,0,0,0,.4-.4v-1.39Z" transform="translate(-299.337 -342.117)"/><path class="a" d="M21.043,54.15v2.123a1.734,1.734,0,0,1-1.738,1.733h-1.1a1.743,1.743,0,0,1-1.748-1.733v-2.13H11.52v2.13a1.743,1.743,0,0,1-1.748,1.733h-1.1a1.734,1.734,0,0,1-1.738-1.733V54.15a1.58,1.58,0,0,0-1.527,1.572V68.162a1.581,1.581,0,0,0,1.573,1.582H21a1.583,1.583,0,0,0,1.573-1.582V55.721A1.58,1.58,0,0,0,21.043,54.15Zm-.509,13.238a.68.68,0,0,1-.68.68H8.1a.68.68,0,0,1-.68-.68V60.961a.68.68,0,0,1,.68-.68H19.854a.68.68,0,0,1,.68.68v6.426Z" transform="translate(-5.411 -52.196)"/><path class="a" d="M80.146,4.671H81.23a.6.6,0,0,0,.6-.6V.6a.6.6,0,0,0-.6-.6H80.146a.6.6,0,0,0-.6.6v3.48A.6.6,0,0,0,80.146,4.671Z" transform="translate(-76.885)"/><path class="a" d="M345.054,4.671h1.084a.6.6,0,0,0,.6-.6V.6a.6.6,0,0,0-.6-.6h-1.084a.6.6,0,0,0-.6.6v3.48A.6.6,0,0,0,345.054,4.671Z" transform="translate(-332.269)"/></svg>