<svg xmlns="http://www.w3.org/2000/svg" width="45" height="45" viewBox="0 0 45 45"><defs><style>.a{fill:#fff;}.b{fill:#ff5656;}.c,.d{stroke:none;}.d{fill:#ff5656;}</style></defs><g transform="translate(-496 -710)"><g class="a" transform="translate(496 710)"><path class="c" d="M 44.5 44.5 L 0.5 44.5 L 0.5 0.5 L 44.5 0.5 L 44.5 44.5 Z"/><path class="d" d="M 1 1 L 1 44 L 44 44 L 44 1 L 1 1 M 0 0 L 45 0 L 45 45 L 0 45 L 0 0 Z"/></g><g transform="translate(510.753 723.481)"><path class="b" d="M222.845,154.7a.447.447,0,0,0-.447.447v8.444a.447.447,0,1,0,.894,0V155.15A.447.447,0,0,0,222.845,154.7Zm0,0" transform="translate(-212.461 -147.791)"/><path class="b" d="M104.845,154.7a.447.447,0,0,0-.447.447v8.444a.447.447,0,0,0,.894,0V155.15A.447.447,0,0,0,104.845,154.7Zm0,0" transform="translate(-99.734 -147.791)"/><path class="b" d="M1.266,5.678V16.686a2.465,2.465,0,0,0,.655,1.7,2.2,2.2,0,0,0,1.6.69h8.453a2.2,2.2,0,0,0,1.6-.69,2.465,2.465,0,0,0,.655-1.7V5.678a1.707,1.707,0,0,0-.438-3.356H11.5V1.763A1.755,1.755,0,0,0,9.728,0H5.76A1.755,1.755,0,0,0,3.991,1.763v.558H1.7a1.707,1.707,0,0,0-.438,3.356Zm10.7,12.5H3.517a1.415,1.415,0,0,1-1.358-1.5V5.717h11.17V16.686a1.415,1.415,0,0,1-1.358,1.5ZM4.885,1.763A.861.861,0,0,1,5.76.892H9.728a.861.861,0,0,1,.876.871v.558H4.885ZM1.7,3.215H13.784a.8.8,0,0,1,0,1.608H1.7a.8.8,0,0,1,0-1.608Zm0,0" transform="translate(0.003 0.002)"/><path class="b" d="M163.845,154.7a.447.447,0,0,0-.447.447v8.444a.447.447,0,0,0,.894,0V155.15A.447.447,0,0,0,163.845,154.7Zm0,0" transform="translate(-156.098 -147.791)"/></g></g></svg>