<svg xmlns="http://www.w3.org/2000/svg" width="74" height="74" viewBox="0 0 74 74"><defs><style>.a{fill:#f1f1f1;}.b{fill:#6035fc;}</style></defs><g transform="translate(-835 -358)"><circle class="a" cx="37" cy="37" r="37" transform="translate(835 358)"/><g transform="translate(858 320)"><g transform="translate(0 64)"><path class="b" d="M7.124,65.739c3.922,3.322,10.8,9.165,12.827,10.987a1.195,1.195,0,0,0,1.729,0c2.024-1.824,8.906-7.668,12.829-10.99a.6.6,0,0,0,.084-.822A2.364,2.364,0,0,0,32.723,64H8.909a2.364,2.364,0,0,0-1.869.917A.6.6,0,0,0,7.124,65.739Z" transform="translate(-6.528 -64)"/><path class="b" d="M28.232,126.467a.593.593,0,0,0-.635.086c-4.349,3.687-9.9,8.413-11.647,9.987a2.411,2.411,0,0,1-3.323,0c-1.862-1.677-8.1-6.977-11.646-9.986a.6.6,0,0,0-.98.454v14.972a2.384,2.384,0,0,0,2.381,2.381H26.2a2.384,2.384,0,0,0,2.381-2.381V127.007A.6.6,0,0,0,28.232,126.467Z" transform="translate(0 -122.928)"/></g></g></g></svg>