<svg xmlns="http://www.w3.org/2000/svg" width="21.77" height="19.351" viewBox="0 0 21.77 19.351"><path d="M21.166,2.419a.6.6,0,0,0,.6-.6V.6a.6.6,0,0,0-.6-.6H.6A.6.6,0,0,0,0,.6V1.814a.6.6,0,0,0,.6.6h.6V16.933H.6a.6.6,0,0,0-.6.6v1.209a.6.6,0,0,0,.6.6H9.676V16.328a.607.607,0,0,1,.6-.6H11.49a.607.607,0,0,1,.6.6v3.024h9.071a.6.6,0,0,0,.6-.6V17.537a.6.6,0,0,0-.6-.6h-.6V2.419ZM9.676,4.112a.52.52,0,0,1,.484-.484h1.451a.52.52,0,0,1,.484.484V5.564a.52.52,0,0,1-.484.484H10.16a.52.52,0,0,1-.484-.484V4.112Zm0,3.628a.52.52,0,0,1,.484-.484h1.451a.52.52,0,0,1,.484.484V9.192a.52.52,0,0,1-.484.484H10.16a.52.52,0,0,1-.484-.484V7.741ZM4.838,4.112a.52.52,0,0,1,.484-.484H6.773a.52.52,0,0,1,.484.484V5.564a.52.52,0,0,1-.484.484H5.322a.52.52,0,0,1-.484-.484V4.112ZM6.773,9.676H5.322a.52.52,0,0,1-.484-.484V7.741a.52.52,0,0,1,.484-.484H6.773a.52.52,0,0,1,.484.484V9.192a.52.52,0,0,1-.484.484Zm.484,4.838a3.628,3.628,0,1,1,7.257,0Zm9.676-5.322a.52.52,0,0,1-.484.484H15a.52.52,0,0,1-.484-.484V7.741A.52.52,0,0,1,15,7.257h1.451a.52.52,0,0,1,.484.484V9.192Zm0-3.628a.52.52,0,0,1-.484.484H15a.52.52,0,0,1-.484-.484V4.112A.52.52,0,0,1,15,3.628h1.451a.52.52,0,0,1,.484.484Z"/></svg>