<svg xmlns="http://www.w3.org/2000/svg" xmlns:xlink="http://www.w3.org/1999/xlink" width="154" height="86.709" viewBox="0 0 154 86.709"><defs><style>.a{fill:#fff;}.b{fill:url(#a);}.c{fill:url(#j);}.d{fill:url(#k);}.e{fill:url(#l);}.f{fill:url(#m);}.g{fill:url(#n);}.h{fill:url(#o);}.i{fill:url(#p);}</style><linearGradient id="a" x1="-4.792" y1="-19.169" x2="11.071" y2="-19.281" gradientUnits="objectBoundingBox"><stop offset="0" stop-color="#be8b2c"/><stop offset="0.25" stop-color="#2900bb"/><stop offset="0.5" stop-color="#f7f498"/><stop offset="0.777" stop-color="#e3cc48"/><stop offset="1" stop-color="#be8b2c"/></linearGradient><linearGradient id="j" x1="-0.112" y1="-6.17" x2="2.178" y2="-6.17" gradientUnits="objectBoundingBox"><stop offset="0" stop-color="#be8b2c"/><stop offset="0.25" stop-color="#e3cc48"/><stop offset="0.5" stop-color="#f7f498"/><stop offset="0.777" stop-color="#e3cc48"/><stop offset="1" stop-color="#be8b2c"/></linearGradient><linearGradient id="k" x1="-1.616" y1="-5.526" x2="1.335" y2="-5.526" xlink:href="#j"/><linearGradient id="l" x1="-0.309" y1="-3.534" x2="2.247" y2="-3.534" xlink:href="#j"/><linearGradient id="m" x1="-1.332" y1="-7.26" x2="1.022" y2="-7.26" xlink:href="#j"/><linearGradient id="n" x1="-4.558" y1="-2.122" x2="4.405" y2="-2.122" xlink:href="#j"/><linearGradient id="o" x1="-1.384" y1="-4.082" x2="1.727" y2="-4.082" xlink:href="#j"/><linearGradient id="p" x1="-1.409" y1="-2.607" x2="3.462" y2="-2.607" xlink:href="#j"/></defs><g transform="translate(-45.2 -21.2)"><g transform="translate(45.2 21.2)"><path class="a" d="M45.2,375.7v17.8H193.622V375.7Z" transform="translate(-45.2 -306.796)"/><path class="a" d="M48.388,261.456v8.591H45.2V248.9h3.615a15.794,15.794,0,0,1,4,.369,5.491,5.491,0,0,1,2.391,1.38,6.094,6.094,0,0,1,1.827,4.509,5.777,5.777,0,0,1-1.963,4.607,7.618,7.618,0,0,1-5.248,1.71H48.388Zm0-2.935h1.186c2.935,0,4.412-1.147,4.412-3.382,0-2.177-1.516-3.265-4.529-3.265H48.388Z" transform="translate(-45.2 -204.642)"/><path class="a" d="M132.05,259.538h-9.058l-2.332,5.131H117.2L127.657,242.2l10.088,22.489h-3.479Zm-1.3-2.993-3.149-7.192-3.285,7.192Z" transform="translate(-103.205 -199.244)"/><path class="a" d="M258.253,261.048l6.55,9H260.9l-6.045-8.65h-.564v8.65H251.1V248.9h3.732q4.2,0,6.064,1.574a5.826,5.826,0,0,1,2.06,4.626,5.986,5.986,0,0,1-1.283,3.868A5.724,5.724,0,0,1,258.253,261.048Zm-3.985-2.43h1.011c3.013,0,4.529-1.166,4.529-3.46,0-2.177-1.458-3.246-4.412-3.246h-1.147v6.706Z" transform="translate(-211.079 -204.642)"/><path class="a" d="M354.83,259.538h-9.058l-2.352,5.151H340L350.457,242.2l10.088,22.489h-3.479Zm-1.3-2.993-3.149-7.192-3.285,7.192Z" transform="translate(-282.699 -199.244)"/><path class="a" d="M473.7,270.148V249h4.432a16.135,16.135,0,0,1,5.054.622,9.6,9.6,0,0,1,3.615,2.1,10.918,10.918,0,0,1-.155,15.725,9.953,9.953,0,0,1-3.6,2.1,16.352,16.352,0,0,1-4.976.6Zm3.207-3.013h1.438a12.584,12.584,0,0,0,3.6-.447,7.351,7.351,0,0,0,2.566-1.516,7.931,7.931,0,0,0,.019-11.254c-1.38-1.283-3.46-1.924-6.181-1.924h-1.438v15.141Z" transform="translate(-390.412 -204.722)"/><path class="a" d="M596.288,248.9v21.148H593.1V248.9Z" transform="translate(-486.604 -204.642)"/><path class="a" d="M657.462,250.457l-2.6,1.536a4.343,4.343,0,0,0-1.38-1.633,3.153,3.153,0,0,0-1.749-.447,3.261,3.261,0,0,0-2.2.739,2.254,2.254,0,0,0-.875,1.847c0,1.03.758,1.847,2.294,2.507l2.1.875a8.834,8.834,0,0,1,3.751,2.546,5.725,5.725,0,0,1,1.186,3.693,6.345,6.345,0,0,1-1.963,4.82,6.652,6.652,0,0,1-4.879,1.924,6.5,6.5,0,0,1-4.548-1.633,7.481,7.481,0,0,1-2.2-4.607l3.246-.719a5.489,5.489,0,0,0,.758,2.566,3.652,3.652,0,0,0,5.345.369,3.443,3.443,0,0,0,.991-2.527,3.552,3.552,0,0,0-.175-1.147,2.511,2.511,0,0,0-.544-.933,4.322,4.322,0,0,0-.933-.816,9.762,9.762,0,0,0-1.361-.719l-2.06-.836c-2.9-1.205-4.354-3.013-4.354-5.365a5.149,5.149,0,0,1,1.827-3.985,6.5,6.5,0,0,1,4.529-1.613A6.343,6.343,0,0,1,657.462,250.457Z" transform="translate(-527.933 -203.031)"/><path class="a" d="M760.282,251.993h-8.494v5.092h8.241v2.993h-8.241v7.075h8.494v2.993H748.6V249h11.682Z" transform="translate(-611.88 -204.722)"/><g transform="translate(9.952 71.392)"><path class="b" d="M300.274,405.261h3.6l.875,2.021h1.38L302.14,398.4,298,407.283h1.361Zm1.827-4.043,1.244,2.838h-2.527Z" transform="translate(-258.815 -396.476)"/><path class="b" d="M667.444,409.458h1.263v-7.172h1.924V401.1H665.5v1.186h1.944Z" transform="translate(-554.884 -398.651)"/><path class="b" d="M515.374,405.261h3.6l.875,2.021h1.38L517.24,398.4l-4.14,8.883h1.361Zm1.827-4.043,1.244,2.838H515.9Z" transform="translate(-432.106 -396.476)"/><path class="b" d="M440.954,408.908a4.36,4.36,0,0,0,2.274-.622V406.75a3.222,3.222,0,0,1-.6.447,5.051,5.051,0,0,1-.544.292,2.628,2.628,0,0,1-1.147.214,2.864,2.864,0,0,1-2.177-.914,3.018,3.018,0,0,1-.894-2.235,3.093,3.093,0,0,1,.894-2.255,2.864,2.864,0,0,1,2.177-.914,3.446,3.446,0,0,1,2.274.914v-1.477a4.127,4.127,0,0,0-2.177-.622,4.218,4.218,0,0,0-3.363,1.536,4.335,4.335,0,0,0-1.069,2.838,4.215,4.215,0,0,0,1.263,3.052A4.109,4.109,0,0,0,440.954,408.908Z" transform="translate(-370.475 -397.926)"/><path class="b" d="M240.932,408.272h-2.488V401.1H237.2v8.358h3.732Z" transform="translate(-209.833 -398.651)"/><path class="b" d="M740.326,408.272h-3.363v-2.8h3.266v-1.186h-3.266v-2h3.363V401.1H735.7v8.358h4.626Z" transform="translate(-611.439 -398.651)"/><path class="b" d="M98.674,405.261h3.6l.875,2.021h1.38L100.54,398.4l-4.14,8.883h1.361Zm1.827-4.043,1.244,2.838H99.2Z" transform="translate(-96.4 -396.476)"/><path class="b" d="M599.544,406.137h.214l2.391,3.421h1.536L601.118,406a2.251,2.251,0,0,0,1.341-.816,2.336,2.336,0,0,0,.525-1.536,2.283,2.283,0,0,0-.816-1.827,3.6,3.6,0,0,0-2.391-.622H598.3v8.358h1.263v-3.421Zm0-3.771h.447q1.749,0,1.749,1.283c0,.914-.6,1.361-1.808,1.361h-.389Z" transform="translate(-500.745 -398.732)"/><path class="b" d="M116.43,390.21l-.486-1.205L114.7,388.5l.505,1.244Z" transform="translate(-111.143 -388.5)"/></g><g transform="translate(60.585)"><path class="c" d="M369.515,80.385s-6.006-2.566-12.615,2.469c0,0,.292-5.559,5.287-6.9C367.2,74.612,369.884,78.48,369.515,80.385Z" transform="translate(-356.9 -65.088)"/><path class="d" d="M431.2,94.24s3.421-4,7.736-.661c4.334,3.343.544,8.047.544,8.047S437.264,93.638,431.2,94.24Z" transform="translate(-416.758 -78.438)"/><path class="e" d="M378.932,52.322s-5.637-7.269-11.332-9C367.619,43.3,378.018,40.834,378.932,52.322Z" transform="translate(-365.52 -38.832)"/><path class="f" d="M433.9,67.841s2.527-7.95,12.3-4.1C446.2,63.72,439.3,68.794,433.9,67.841Z" transform="translate(-418.933 -54.624)"/><path class="g" d="M426.305,33.232s-2.9-4.9,1.613-12.032C427.879,21.2,430.329,31.171,426.305,33.232Z" transform="translate(-412.077 -21.2)"/><path class="h" d="M422.936,117.376a6.7,6.7,0,0,0,2.274-5.365,7.031,7.031,0,0,0-2.119-5.229,6.313,6.313,0,0,0-2.8-1.633,12.62,12.62,0,0,0-2.119-.35c-.836,2.2-2.119,7-2.274,14.52h.972A8.822,8.822,0,0,0,422.936,117.376Z" transform="translate(-404.432 -88.551)"/><path class="i" d="M396.9,104.4h-4.2v24.607h1.069c.564-10.068,1.983-17.357,4.879-24.568C398.084,104.4,397.52,104.4,396.9,104.4Z" transform="translate(-385.741 -88.228)"/></g></g><g transform="translate(195.06 60.891)"><path class="a" d="M818.221,225.4h.136a.428.428,0,0,1,.156.019c.117.019.214.039.33.058a2.058,2.058,0,0,1,1.419,1.419,3.059,3.059,0,0,1,.078.447v.194a1.5,1.5,0,0,1-.039.292,2.025,2.025,0,0,1-.156.486,1.964,1.964,0,0,1-.739.855,2.417,2.417,0,0,1-.389.194,1.615,1.615,0,0,1-.408.117.946.946,0,0,1-.233.019h-.214c-.078,0-.155-.019-.233-.019a2.259,2.259,0,0,1-.35-.078,3.159,3.159,0,0,1-.447-.214,2.14,2.14,0,0,1-.564-.544,2.231,2.231,0,0,1-.272-.525,1.665,1.665,0,0,1-.1-.525V227.4a1.7,1.7,0,0,1,.039-.311,1.569,1.569,0,0,1,.136-.428,2.093,2.093,0,0,1,.777-.914,2.225,2.225,0,0,1,.7-.292,1.5,1.5,0,0,1,.292-.039A.147.147,0,0,1,818.221,225.4Zm.078.408a1.633,1.633,0,1,0,1.633,1.633A1.643,1.643,0,0,0,818.3,225.808Z" transform="translate(-816.2 -225.4)"/><path class="a" d="M823.563,231.347c.039.019.078.019.117.058a.591.591,0,0,1,.155.155,1.162,1.162,0,0,1,.117.214c.1.194.194.389.292.564v.019h-.583a.019.019,0,0,1-.019-.019c-.1-.175-.175-.35-.272-.544a.681.681,0,0,0-.1-.156.384.384,0,0,0-.214-.117h-.214v.816H822.3V230.2h.894a2.383,2.383,0,0,1,.369.039.53.53,0,0,1,.233.117.361.361,0,0,1,.136.233.662.662,0,0,1,0,.389.5.5,0,0,1-.194.253.4.4,0,0,1-.175.117Zm-.7-.739v.544h.233a.288.288,0,0,0,.136-.019.188.188,0,0,0,.156-.136.4.4,0,0,0,0-.214.211.211,0,0,0-.156-.156.428.428,0,0,0-.156-.019h-.214Z" transform="translate(-821.114 -229.267)"/></g></g></svg>