<svg xmlns="http://www.w3.org/2000/svg" xmlns:xlink="http://www.w3.org/1999/xlink" width="114.12" height="64.254" viewBox="0 0 114.12 64.254"><defs><style>.a{fill:#fff;}.b{fill:url(#a);}</style><linearGradient id="a" x1="-1.886" y1="-95.368" x2="72.617" y2="-95.946" gradientUnits="objectBoundingBox"><stop offset="0" stop-color="#2900bb"/><stop offset="0.25" stop-color="#e3cc48"/><stop offset="0.5" stop-color="#f7f498"/><stop offset="0.777" stop-color="#e3cc48"/><stop offset="1" stop-color="#be8b2c"/></linearGradient></defs><g transform="translate(-45.2 -21.2)"><g transform="translate(45.2 21.2)"><path class="a" d="M45.2,375.7v13.194H155.186V375.7Z" transform="translate(-45.2 -324.639)"/><path class="a" d="M47.562,258.2v6.366H45.2V248.9h2.679a11.7,11.7,0,0,1,2.967.274,4.069,4.069,0,0,1,1.772,1.023,4.516,4.516,0,0,1,1.354,3.342,4.281,4.281,0,0,1-1.455,3.414,5.646,5.646,0,0,1-3.889,1.267H47.562Zm0-2.175h.879c2.175,0,3.27-.85,3.27-2.506,0-1.613-1.123-2.42-3.356-2.42h-.792Z" transform="translate(-45.2 -216.103)"/><path class="a" d="M128.2,255.048h-6.712l-1.728,3.8H117.2l7.749-16.651,7.475,16.665h-2.578Zm-.965-2.218-2.333-5.329-2.434,5.329Z" transform="translate(-106.829 -210.368)"/><path class="a" d="M256.4,257.9l4.854,6.669h-2.9l-4.48-6.41h-.418v6.41H251.1V248.9h2.766a6.945,6.945,0,0,1,4.494,1.167,4.318,4.318,0,0,1,1.527,3.428,4.436,4.436,0,0,1-.951,2.866A4.242,4.242,0,0,1,256.4,257.9Zm-2.953-1.8h.749c2.233,0,3.356-.864,3.356-2.564,0-1.613-1.08-2.405-3.27-2.405h-.85V256.1Z" transform="translate(-221.443 -216.103)"/><path class="a" d="M350.99,255.048h-6.712l-1.743,3.817H340l7.749-16.665,7.475,16.665h-2.578Zm-.965-2.218-2.333-5.329-2.434,5.329Z" transform="translate(-297.538 -210.368)"/><path class="a" d="M473.7,264.671V249h3.284a11.957,11.957,0,0,1,3.745.461,7.111,7.111,0,0,1,2.679,1.556,8.091,8.091,0,0,1-.115,11.653,7.376,7.376,0,0,1-2.665,1.556,12.117,12.117,0,0,1-3.687.447Zm2.377-2.233h1.066a9.325,9.325,0,0,0,2.665-.331,5.447,5.447,0,0,0,1.9-1.123,5.877,5.877,0,0,0,.014-8.34,6.537,6.537,0,0,0-4.58-1.426h-1.066v11.22Z" transform="translate(-411.981 -216.189)"/><path class="a" d="M595.462,248.9v15.671H593.1V248.9Z" transform="translate(-514.183 -216.103)"/><path class="a" d="M654.079,249.536l-1.93,1.138a3.219,3.219,0,0,0-1.023-1.21,2.337,2.337,0,0,0-1.3-.331,2.417,2.417,0,0,0-1.628.547,1.67,1.67,0,0,0-.648,1.368c0,.763.562,1.368,1.7,1.858l1.556.648a6.546,6.546,0,0,1,2.78,1.887,4.242,4.242,0,0,1,.879,2.737,4.7,4.7,0,0,1-1.455,3.572,4.929,4.929,0,0,1-3.615,1.426,4.814,4.814,0,0,1-3.37-1.21,5.543,5.543,0,0,1-1.628-3.414l2.405-.533a4.068,4.068,0,0,0,.562,1.9,2.706,2.706,0,0,0,3.961.274,2.551,2.551,0,0,0,.735-1.872,2.63,2.63,0,0,0-.13-.85,1.862,1.862,0,0,0-.4-.691,3.2,3.2,0,0,0-.691-.6,7.236,7.236,0,0,0-1.008-.533l-1.527-.619c-2.146-.893-3.226-2.233-3.226-3.975a3.816,3.816,0,0,1,1.354-2.953,4.817,4.817,0,0,1,3.356-1.2A4.7,4.7,0,0,1,654.079,249.536Z" transform="translate(-558.094 -214.391)"/><path class="a" d="M757.257,251.218h-6.294v3.774h6.107v2.218h-6.107v5.243h6.294v2.218H748.6V249h8.657Z" transform="translate(-647.285 -216.189)"/><g transform="translate(7.375 52.904)"><path class="b" d="M299.685,403.484h2.665l.648,1.5h1.023l-2.953-6.582L298,404.982h1.008Zm1.354-3,.922,2.1h-1.872Z" transform="translate(-268.962 -396.974)"/><path class="b" d="M666.94,407.294h.936v-5.315H669.3V401.1h-3.8v.879h1.44Z" transform="translate(-583.529 -399.285)"/><path class="b" d="M514.785,403.484h2.665l.648,1.5h1.023l-2.953-6.582-3.068,6.582h1.008Zm1.354-3,.922,2.1h-1.887Z" transform="translate(-453.08 -396.974)"/><path class="b" d="M439.826,406.653a3.231,3.231,0,0,0,1.685-.461v-1.138a2.387,2.387,0,0,1-.447.331,3.744,3.744,0,0,1-.4.216,1.947,1.947,0,0,1-.85.158,2.122,2.122,0,0,1-1.613-.677,2.236,2.236,0,0,1-.663-1.656,2.292,2.292,0,0,1,.663-1.671,2.122,2.122,0,0,1,1.613-.677,2.554,2.554,0,0,1,1.685.677v-1.095a3.058,3.058,0,0,0-1.613-.461,3.125,3.125,0,0,0-2.492,1.138,3.212,3.212,0,0,0-.792,2.1,3.124,3.124,0,0,0,.936,2.261A3.045,3.045,0,0,0,439.826,406.653Z" transform="translate(-387.599 -398.515)"/><path class="b" d="M239.965,406.415h-1.844V401.1H237.2v6.194h2.765Z" transform="translate(-216.92 -399.285)"/><path class="b" d="M739.128,406.415h-2.492v-2.074h2.42v-.879h-2.42v-1.484h2.492V401.1H735.7v6.194h3.428Z" transform="translate(-643.618 -399.285)"/><path class="b" d="M98.085,403.484h2.665l.648,1.5h1.023L99.468,398.4,96.4,404.982h1.008Zm1.354-3,.922,2.1H98.474Z" transform="translate(-96.4 -396.974)"/><path class="b" d="M599.222,404.859h.158l1.772,2.535h1.138l-1.9-2.636a1.668,1.668,0,0,0,.994-.6,1.731,1.731,0,0,0,.389-1.138,1.692,1.692,0,0,0-.6-1.354,2.666,2.666,0,0,0-1.772-.461H598.3v6.194h.936v-2.535Zm0-2.794h.331q1.3,0,1.3.951c0,.677-.447,1.008-1.34,1.008h-.288Z" transform="translate(-526.008 -399.371)"/><path class="b" d="M115.982,389.767l-.36-.893-.922-.375.374.922Z" transform="translate(-112.064 -388.5)"/></g><g transform="translate(44.896)"><path class="a" d="M366.248,79.165s-4.451-1.9-9.348,1.829c0,0,.216-4.119,3.918-5.113S366.522,77.754,366.248,79.165Z" transform="translate(-356.9 -67.83)"/><path class="a" d="M431.2,93.724a4.09,4.09,0,0,1,5.733-.49c3.212,2.477.4,5.963.4,5.963S435.694,93.278,431.2,93.724Z" transform="translate(-420.498 -82.014)"/><path class="a" d="M376,49.93s-4.177-5.387-8.4-6.669C367.614,43.247,375.32,41.418,376,49.93Z" transform="translate(-366.059 -39.934)"/><path class="a" d="M433.9,66.507s1.872-5.891,9.117-3.039C443.017,63.453,437.9,67.212,433.9,66.507Z" transform="translate(-422.809 -56.712)"/><path class="a" d="M426.068,30.116s-2.146-3.63,1.2-8.916C427.235,21.2,429.049,28.589,426.068,30.116Z" transform="translate(-415.525 -21.2)"/><path class="a" d="M421.114,114.119a4.964,4.964,0,0,0,1.685-3.975,5.21,5.21,0,0,0-1.57-3.875,4.678,4.678,0,0,0-2.074-1.21,9.351,9.351,0,0,0-1.57-.259,33.428,33.428,0,0,0-1.685,10.759h.72A6.537,6.537,0,0,0,421.114,114.119Z" transform="translate(-407.402 -92.759)"/><path class="a" d="M395.811,104.4H392.7v18.235h.792c.418-7.461,1.469-12.862,3.615-18.206C396.69,104.4,396.272,104.4,395.811,104.4Z" transform="translate(-387.543 -92.416)"/></g></g><g transform="translate(156.252 50.612)"><path class="a" d="M817.7,225.4h.1a.317.317,0,0,1,.115.014l.245.043a1.525,1.525,0,0,1,1.052,1.051,2.264,2.264,0,0,1,.058.331v.144a1.112,1.112,0,0,1-.029.216,1.5,1.5,0,0,1-.115.36,1.455,1.455,0,0,1-.547.634,1.793,1.793,0,0,1-.288.144,1.2,1.2,0,0,1-.3.086.7.7,0,0,1-.173.014h-.158c-.058,0-.115-.014-.173-.014a1.673,1.673,0,0,1-.259-.058,2.337,2.337,0,0,1-.331-.158,1.586,1.586,0,0,1-.418-.4,1.654,1.654,0,0,1-.2-.389,1.235,1.235,0,0,1-.072-.389v-.144a1.26,1.26,0,0,1,.029-.23,1.164,1.164,0,0,1,.1-.317,1.552,1.552,0,0,1,.576-.677,1.65,1.65,0,0,1,.519-.216,1.113,1.113,0,0,1,.216-.029A.109.109,0,0,1,817.7,225.4Zm.058.3a1.21,1.21,0,1,0,1.21,1.21A1.217,1.217,0,0,0,817.755,225.7Z" transform="translate(-816.2 -225.4)"/><path class="a" d="M823.236,231.05c.029.014.058.014.086.043a.437.437,0,0,1,.115.115.863.863,0,0,1,.086.158c.072.144.144.288.216.418v.014h-.432a.014.014,0,0,1-.014-.014c-.072-.13-.13-.259-.2-.4a.507.507,0,0,0-.072-.115.285.285,0,0,0-.158-.086H822.7v.6h-.4V230.2h.663a1.765,1.765,0,0,1,.274.029.393.393,0,0,1,.173.086.267.267,0,0,1,.1.173.49.49,0,0,1,0,.288.369.369,0,0,1-.144.187.293.293,0,0,1-.13.086Zm-.519-.547v.4h.173a.213.213,0,0,0,.1-.014.14.14,0,0,0,.115-.1.3.3,0,0,0,0-.158.156.156,0,0,0-.115-.115.317.317,0,0,0-.115-.014h-.158Z" transform="translate(-821.421 -229.509)"/></g></g></svg>