<svg xmlns="http://www.w3.org/2000/svg" width="129" height="129" viewBox="0 0 129 129"><defs><style>.a{fill:#f7f7f7;}.b{fill:#a3a8cb;}.c{fill:none;}.d{fill:#fe9898;stroke:#f7f7f7;stroke-width:3px;}.e{fill:#78ff64;}.f{fill:#9393ff;}.g{fill:#dd6e6e;}.h{fill:#ff8989;}.i,.j{stroke:none;}.j{fill:#f7f7f7;}</style></defs><g transform="translate(-576 -319)"><circle class="a" cx="64.5" cy="64.5" r="64.5" transform="translate(576 319)"/><g class="b" transform="translate(609.883 392.335)"><path class="i" d="M 64.41996765136719 25.59179878234863 L -3.131188631057739 25.59179878234863 L 7.382656097412109 0.4999984502792358 L 55.92244338989258 0.4999984502792358 L 64.41996765136719 25.59179878234863 Z"/><path class="j" d="M 7.715274810791016 0.9999980926513672 L -2.379554748535156 25.09179878234863 L 63.72274398803711 25.09179878234863 L 55.56387710571289 0.9999980926513672 L 7.715274810791016 0.9999980926513672 M 7.050048828125 -1.9073486328125e-06 L 56.281005859375 -1.9073486328125e-06 L 65.1171875 26.09179878234863 L -3.8828125 26.09179878234863 L 7.050048828125 -1.9073486328125e-06 Z"/></g><g transform="translate(611.656 354.573)"><path class="c" d="M0,0H57.688V57.688H0Z"/><path class="d" d="M21.826,2A16.813,16.813,0,0,0,5,18.826C5,31.445,21.826,50.073,21.826,50.073S38.651,31.445,38.651,18.826A16.813,16.813,0,0,0,21.826,2Zm0,22.835a6.009,6.009,0,1,1,6.009-6.009A6.011,6.011,0,0,1,21.826,24.835Z" transform="translate(7.018 2.807)"/></g><g transform="translate(658.582 359.238)"><path class="c" d="M0,0H21.523V21.523H0Z"/><path class="e" d="M11.278,2A6.273,6.273,0,0,0,5,8.278c0,4.708,6.278,11.659,6.278,11.659s6.278-6.95,6.278-11.659A6.273,6.273,0,0,0,11.278,2Zm0,8.52A2.242,2.242,0,1,1,13.52,8.278,2.243,2.243,0,0,1,11.278,10.52Z" transform="translate(-0.516 -0.206)"/></g><g transform="translate(595.238 370)"><path class="c" d="M0,0H21.523V21.523H0Z"/><path class="f" d="M11.278,2A6.273,6.273,0,0,0,5,8.278c0,4.708,6.278,11.659,6.278,11.659s6.278-6.95,6.278-11.659A6.273,6.273,0,0,0,11.278,2Zm0,8.52A2.242,2.242,0,1,1,13.52,8.278,2.243,2.243,0,0,1,11.278,10.52Z" transform="translate(-0.516 -0.206)"/></g><g transform="translate(609 352.156)"><path class="c" d="M0,0H10.762V10.762H0Z"/><path class="g" d="M8.139,2A3.137,3.137,0,0,0,5,5.139c0,2.354,3.139,5.829,3.139,5.829s3.139-3.475,3.139-5.829A3.137,3.137,0,0,0,8.139,2Zm0,4.26A1.121,1.121,0,1,1,9.26,5.139,1.121,1.121,0,0,1,8.139,6.26Z" transform="translate(-2.758 -1.103)"/></g><g transform="translate(676.105 379.979)"><path class="c" d="M0,0H12.355V12.355H0Z"/><path class="h" d="M8.6,2A3.6,3.6,0,0,0,5,5.6C5,8.306,8.6,12.3,8.6,12.3s3.6-3.99,3.6-6.692A3.6,3.6,0,0,0,8.6,2Zm0,4.891A1.287,1.287,0,1,1,9.891,5.6,1.287,1.287,0,0,1,8.6,6.891Z" transform="translate(-2.426 -0.97)"/></g></g></svg>