<svg xmlns="http://www.w3.org/2000/svg" width="74" height="74" viewBox="0 0 74 74"><defs><style>.a{fill:#f1f1f1;}.b{fill:#6035fc;}</style></defs><g transform="translate(-497 -358)"><circle class="a" cx="37" cy="37" r="37" transform="translate(497 358)"/><g transform="translate(521.001 382)"><path class="b" d="M23.8,17.016a14.775,14.775,0,0,1-4.636-.737,1.986,1.986,0,0,0-2.017.427l-2.934,2.216A16.388,16.388,0,0,1,6.923,11.63L9.079,8.765a2.059,2.059,0,0,0,.5-2.081A14.769,14.769,0,0,1,8.841,2.04,2.043,2.043,0,0,0,6.8,0H2.04A2.043,2.043,0,0,0,0,2.04a23.831,23.831,0,0,0,23.8,23.8,2.043,2.043,0,0,0,2.04-2.04V19.056A2.043,2.043,0,0,0,23.8,17.016Z"/></g></g></svg>