<svg xmlns="http://www.w3.org/2000/svg" width="21.267" height="21.267" viewBox="0 0 21.267 21.267"><defs><style>.a{fill:#fff;stroke:#fff;}</style></defs><g transform="translate(0.5 0.5)"><path class="a" d="M8.925,0A8.925,8.925,0,1,0,17.85,8.925,8.935,8.935,0,0,0,8.925,0Zm0,16.2A7.277,7.277,0,1,1,16.2,8.925,7.286,7.286,0,0,1,8.925,16.2Z"/><g transform="translate(13.896 13.896)"><path class="a" d="M357.176,356.011l-4.723-4.723a.824.824,0,0,0-1.165,1.165l4.723,4.723a.824.824,0,0,0,1.165-1.165Z" transform="translate(-351.046 -351.046)"/></g></g></svg>