<svg xmlns="http://www.w3.org/2000/svg" width="17.121" height="21.072" viewBox="0 0 17.121 21.072"><path d="M63.475,2.634H59.853V1.976A1.975,1.975,0,0,0,57.878,0H55.244a1.975,1.975,0,0,0-1.976,1.976v.659H49.646A1.646,1.646,0,0,0,48,4.28V5.6a.658.658,0,0,0,.659.659h15.8a.658.658,0,0,0,.659-.659V4.28A1.646,1.646,0,0,0,63.475,2.634Zm-8.89-.659a.659.659,0,0,1,.659-.659h2.634a.659.659,0,0,1,.659.659v.659H54.585Z" transform="translate(-48)"/><path d="M73.57,184a.206.206,0,0,0-.206.216l.543,11.4a1.973,1.973,0,0,0,1.973,1.882h10a1.973,1.973,0,0,0,1.973-1.882l.543-11.4a.206.206,0,0,0-.206-.216Zm9.945,1.646a.659.659,0,1,1,1.317,0v8.561a.659.659,0,0,1-1.317,0Zm-3.293,0a.659.659,0,1,1,1.317,0v8.561a.659.659,0,0,1-1.317,0Zm-3.293,0a.659.659,0,1,1,1.317,0v8.561a.659.659,0,0,1-1.317,0Z" transform="translate(-72.32 -176.427)"/></svg>